<svg width="46" height="57" xmlns="http://www.w3.org/2000/svg"><g fill="none" fill-rule="evenodd"><path d="M15.11 13.726l-4.65 11.505 4.694 13.61 4.268 2.672 5.54 14.157 6.809-15.476 4.981-2.43 2.673-11.517-4.679-8.347-7.345-6.15-12.29 1.976z" stroke="#7D93FF" stroke-width=".75" fill="#7F90E8"/><path fill="#93A6FF" d="M16.823 15.746l10.406-1.678 6.185 5.192 3.93 7.028-2.257 9.743-4.97 3.145-4.853 10.443-4.205-9.148-4.236-3.561-3.93-11.421z"/><path d="M19.828 19.583l-2.46 6.092 2.475 7.185 5.271.996 6.176-1.555 1.403-6.054-2.487-4.443-3.894-3.265-6.484 1.044z" stroke="#7D93FF" stroke-width=".75" fill="#7F90E8"/><path fill="#93A6FF" d="M21.214 21.422l4.675-.76 2.78 2.35 1.764 3.179-1.013 4.407-4.413 1.12-3.793-.722-1.765-5.167z"/><path d="M20.069 19.693l-4.96-6.013M26.359 19.014l1.151-7.273M25.03 55.085V33.852M15.285 38.798l4.607-6.11M10.679 25.465h6.91M31.054 32.494l5.492 4.946M32.47 26.24h6.91M30.345 21.633l4.43-3.782" stroke="#7D93FF" stroke-width=".75"/><path d="M5.53 9.412l5.176 3.882M15.882 2.941l1.294 6.47M27.53 1.647l-1.295 6.47M37.882 5.53L34 12M44.353 13.294l-5.177 5.177M1.647 19.765l6.47 1.294" stroke="#7D93FF" stroke-width="2" stroke-linecap="square"/></g></svg>
