<svg width="31" height="43" xmlns="http://www.w3.org/2000/svg"><g fill="none" fill-rule="evenodd"><path d="M15.5 42.253l12.063-9.248a7.5 7.5 0 0 0 2.937-5.952V8A7.5 7.5 0 0 0 23 .5H8A7.5 7.5 0 0 0 .5 8v19.053a7.5 7.5 0 0 0 2.937 5.952L15.5 42.253z" stroke="#6B6B6B" fill="#FFF"/><path d="M15.5 33.83l-.335-.283C7.955 27.597 6 25.5 6 22.1c0-2.833 2.235-5.1 5.03-5.1 2.29 0 3.576 1.303 4.47 2.323.894-1.02 2.18-2.323 4.47-2.323 2.795 0 5.03 2.267 5.03 5.1 0 3.4-1.956 5.497-9.165 11.447l-.335.283z" fill="#FF6F6F"/><path d="M15.5 33.83l-.335-.283C7.955 27.597 6 25.5 6 22.1c0-2.833 2.235-5.1 5.03-5.1 2.29 0 3.576 1.303 4.47 2.323.894-1.02 2.18-2.323 4.47-2.323 2.795 0 5.03 2.267 5.03 5.1 0 3.4-1.956 5.497-9.165 11.447l-.335.283zm-4.47-15.697c-2.18 0-3.912 1.757-3.912 3.967 0 2.89 1.788 4.817 8.382 10.257 6.594-5.44 8.382-7.367 8.382-10.257 0-2.21-1.732-3.967-3.911-3.967-1.956 0-3.018 1.19-3.856 2.154l-.615.736-.615-.736c-.838-.964-1.9-2.154-3.856-2.154z" fill="#6B6B6B" fill-rule="nonzero"/></g></svg>
