<svg width="33" height="49" xmlns="http://www.w3.org/2000/svg"><g fill="none" fill-rule="evenodd"><path stroke="#8B8B8B" stroke-width=".75" fill="#C9C9C9" fill-rule="nonzero" d="M5.689 2.74L.574 15.39 5.75 30.397l4.729 2.96 6.049 15.46 7.45-16.93 5.51-2.69 2.94-12.664-5.154-9.195L19.192.57z"/><path fill="#D8D8D8" fill-rule="nonzero" d="M7.5 4.87l11.535-1.86 6.859 5.757 4.356 7.79-2.501 10.804-5.51 3.487-5.38 11.577-4.663-10.142L7.5 28.334 3.142 15.672z"/><path stroke="#8B8B8B" stroke-width=".75" fill="#C9C9C9" fill-rule="nonzero" d="M10.919 9.234l-2.683 6.648 2.704 7.855 5.748 1.088 6.75-1.7 1.527-6.593-2.723-4.864-4.258-3.572z"/><path fill="#D8D8D8" fill-rule="nonzero" d="M12.368 11.163l5.184-.841 3.08 2.605 1.957 3.526-1.123 4.887-4.893 1.24-4.204-.8-1.958-5.73z"/><path d="M11.098 9.247l-5.5-6.666m12.473 5.913L19.348.43m-2.75 48.056v-23.54M5.795 30.426l5.108-6.772M.689 15.694h7.659m14.928 7.745l6.09 5.483m-4.518-12.367h7.661m-10.017-5.159l4.91-4.192" stroke="#979797" stroke-width=".75"/></g></svg>
